<?xml version="1.0" encoding="UTF-8"?>
<svg width="91px" height="55px" viewBox="0 0 91 55" version="1.1" xmlns="http://www.w3.org/2000/svg" xmlns:xlink="http://www.w3.org/1999/xlink">
    <!-- Generator: Sketch 58 (84663) - https://sketch.com -->
    <title>arrow</title>
    <desc>Created with Sketch.</desc>
    <g id="Page-1" stroke="none" stroke-width="1" fill="none" fill-rule="evenodd">
        <g id="Clean-Alt" transform="translate(-1057.000000, -4471.000000)" fill="#002F3C">
            <g id="JAMAICA" transform="translate(175.000000, 3658.000000)">
                <g id="arrow" transform="translate(927.791755, 841.038060) scale(-1, -1) rotate(-32.000000) translate(-927.791755, -841.038060) translate(875.791755, 833.038060)">
                    <path d="M31.4032714,0.661420042 C21.0928429,1.37996936 10.5055648,2.36525856 0.880399707,6.06440139 C0.890892549,6.06065504 0.901385392,6.05615943 0.912685376,6.05166381 C-0.654783865,6.5311962 0.0902079526,8.8883976 1.72224853,8.42609841 C7.69590448,6.04866673 14.1901668,4.97421447 20.5916079,4.10730982 C40.6975084,1.77408504 61.2441083,2.672459 81.0828449,6.40382041 C88.1372636,7.9420704 94.944697,10.1666511 101.727916,12.5066193 C102.280808,12.6849454 102.9015,12.3073137 103.049207,11.8097988 C83.2960275,0.551277446 54.7062603,0.227593083 31.4032714,0.661420042" id="Fill-1"></path>
                    <path d="M97.6670145,9.45964108 C97.6977383,9.49398579 97.7276088,9.52756728 97.7574792,9.561912 C97.7267553,9.52756728 97.6968849,9.49398579 97.6670145,9.45964108 M90.4733667,1.64354777 C89.3732822,3.92174702 99.1545608,8.90020387 100.013975,13.0475187 C108.161769,16.2179172 92.9116455,-0.5293277 90.4733667,1.64354777" id="Fill-3"></path>
                    <path d="M99.9142377,10.7790776 C97.2774937,11.8336699 77.6397642,11.2756276 82.2677693,15.7745551 C88.0591161,15.8667935 94.0566247,14.4078896 99.9142377,13.9712946 C102.115751,13.9874363 102.114115,10.740645 99.9142377,10.7790776" id="Fill-5"></path>
                </g>
            </g>
        </g>
    </g>
</svg>