<?xml version="1.0" standalone="no"?>
<!DOCTYPE svg PUBLIC "-//W3C//DTD SVG 20010904//EN"
 "http://www.w3.org/TR/2001/REC-SVG-20010904/DTD/svg10.dtd">
<svg version="1.0" xmlns="http://www.w3.org/2000/svg"
 width="1356.000000pt" height="1084.000000pt" viewBox="0 0 1356.000000 1084.000000"
 preserveAspectRatio="xMidYMid meet">

<g transform="translate(0.000000,1084.000000) scale(0.100000,-0.100000)"
fill="#000000" stroke="none">
<path d="M3963 9132 l-253 -2 0 -53 c-2 -555 1 -3211 3 -3213 3 -4 260 73 572
171 77 24 331 102 565 173 234 72 619 190 855 262 237 73 581 178 765 235 184
57 374 115 423 130 l87 26 0 1135 0 1134 -167 0 c-93 0 -715 1 -1383 3 -668 1
-1329 1 -1467 -1z"/>
<path d="M7530 7971 l0 -1170 28 9 c35 12 507 157 737 227 324 98 1317 403
1448 444 l127 40 0 810 0 809 -1170 0 -1170 0 0 -1169z"/>
<path d="M9780 6995 c-58 -18 -224 -70 -370 -115 -146 -45 -386 -119 -535
-165 -148 -46 -398 -123 -555 -171 -157 -48 -602 -185 -990 -304 l-705 -217
-3 -1142 -2 -1141 1637 2 1638 3 3 1628 c1 896 -1 1634 -5 1641 -6 10 -32 6
-113 -19z"/>
<path d="M6015 6065 c-22 -8 -157 -50 -300 -94 -360 -110 -1017 -313 -1400
-431 -176 -55 -374 -115 -440 -135 -66 -20 -123 -40 -127 -44 -7 -6 -10 -531
-8 -1398 l0 -233 1165 0 1165 0 0 1175 c0 646 -3 1175 -7 1174 -5 0 -26 -7
-48 -14z"/>
<path d="M1600 3241 c-15 -30 -14 -1293 2 -1309 8 -8 51 -12 129 -12 97 0 118
3 123 16 3 9 6 121 6 250 l0 234 185 0 c218 0 205 -8 205 130 0 138 13 130
-205 130 l-185 0 0 160 0 160 248 2 247 3 3 119 c2 89 -1 121 -10 128 -7 4
-176 8 -375 8 -348 0 -363 -1 -373 -19z"/>
<path d="M2555 3244 c-15 -15 -16 -70 -13 -573 l3 -556 27 -57 c32 -68 86
-112 161 -128 33 -8 117 -11 227 -8 145 3 181 7 210 22 49 25 88 64 113 111
22 39 22 48 25 610 2 530 1 571 -15 582 -26 20 -207 17 -227 -3 -14 -14 -16
-75 -16 -520 0 -594 11 -544 -120 -544 -131 0 -120 -50 -120 544 0 445 -2 506
-16 520 -23 23 -216 23 -239 0z"/>
<path d="M3460 3241 c-14 -28 -13 -214 2 -229 8 -8 50 -12 125 -12 l113 0 0
-523 c0 -405 3 -527 13 -540 11 -15 28 -17 132 -15 l120 3 5 535 5 535 120 5
120 5 3 119 c2 89 -1 121 -10 128 -7 4 -176 8 -375 8 -348 0 -363 -1 -373 -19z"/>
<path d="M4376 3238 c-14 -20 -16 -86 -16 -523 0 -281 5 -530 10 -570 12 -77
43 -139 87 -172 60 -43 113 -53 292 -53 198 0 250 12 311 71 70 68 70 71 70
692 1 401 -2 553 -11 563 -8 10 -39 14 -115 14 -95 0 -104 -2 -118 -22 -14
-20 -16 -86 -16 -525 l0 -502 -22 -15 c-30 -21 -166 -22 -194 -2 -18 14 -19
33 -22 527 -2 353 -6 517 -13 526 -8 9 -42 13 -120 13 -100 0 -109 -2 -123
-22z"/>
<path d="M5320 3241 c-6 -13 -10 -235 -10 -651 0 -416 4 -638 10 -651 10 -17
22 -19 124 -19 95 0 115 3 120 16 3 9 6 99 6 200 l0 185 82 -3 81 -3 46 -185
c25 -102 50 -191 54 -198 11 -17 221 -17 235 1 7 8 -5 75 -40 219 l-49 207 34
34 c62 62 69 107 65 418 -3 263 -4 276 -26 321 -14 27 -40 58 -63 74 -68 47
-119 54 -401 54 -244 0 -258 -1 -268 -19z m492 -259 c10 -10 13 -59 13 -192 0
-225 7 -215 -143 -215 l-107 0 -3 205 c-1 112 -1 209 1 215 6 15 223 3 239
-13z"/>
<path d="M6270 3241 c-6 -13 -10 -235 -10 -651 0 -416 4 -638 10 -651 10 -18
25 -19 379 -19 327 0 370 2 375 16 11 30 7 219 -6 232 -9 9 -78 12 -250 12
l-238 0 0 135 0 135 183 0 c129 0 187 4 195 12 13 13 17 215 4 235 -5 9 -62
13 -192 15 l-185 3 -3 142 -3 143 248 2 248 3 3 114 c2 75 -1 118 -9 127 -9
12 -76 14 -375 14 -349 0 -364 -1 -374 -19z"/>
<path d="M7700 3250 c-13 -8 -15 -93 -18 -643 -1 -409 1 -644 8 -661 l10 -27
117 3 118 3 5 385 c3 212 8 378 12 370 4 -8 37 -141 73 -295 86 -365 105 -437
117 -452 15 -18 162 -17 177 0 6 8 37 126 70 263 33 137 73 305 89 374 l30
125 1 -371 c1 -281 4 -374 14 -387 11 -15 28 -17 127 -15 l115 3 3 659 c2 521
0 661 -10 668 -7 4 -77 8 -155 8 -137 0 -143 -1 -157 -22 -7 -13 -58 -202
-111 -420 -54 -219 -101 -398 -104 -398 -4 0 -52 183 -108 406 -56 223 -107
412 -114 420 -9 11 -42 14 -153 14 -77 0 -148 -5 -156 -10z"/>
<path d="M9233 3252 c-15 -9 -336 -1299 -329 -1319 5 -11 30 -13 123 -11 l118
3 30 120 c17 66 34 126 38 133 6 9 52 12 172 12 190 0 172 11 205 -120 11 -47
26 -100 31 -117 l11 -33 114 0 c93 0 116 3 120 15 4 8 -42 207 -100 443 -59
235 -131 526 -160 646 -30 120 -61 223 -68 227 -16 11 -289 11 -305 1z m213
-605 c28 -122 49 -225 47 -229 -2 -5 -51 -8 -108 -8 -57 0 -106 3 -108 8 -2 4
17 97 43 207 62 264 60 258 68 250 4 -3 30 -106 58 -228z"/>
<path d="M9985 3250 c-10 -16 -7 -1312 3 -1322 5 -5 137 -8 293 -6 276 3 285
4 332 27 55 27 100 82 120 145 9 30 12 160 12 491 0 412 -2 455 -19 507 -21
66 -63 113 -126 142 -42 19 -65 21 -327 24 -192 2 -283 0 -288 -8z m473 -266
l22 -15 0 -376 c0 -336 -2 -378 -17 -395 -14 -15 -32 -18 -120 -18 l-103 0 0
403 c0 222 3 407 7 410 3 4 47 7 97 7 67 0 98 -4 114 -16z"/>
<path d="M10930 3241 c-16 -31 -14 -1282 3 -1304 11 -16 43 -17 382 -15 l370
3 3 119 c2 89 -1 121 -10 128 -7 4 -120 8 -250 8 l-238 0 0 135 0 135 183 0
c129 0 187 4 195 12 18 18 17 237 -2 244 -8 3 -94 6 -193 7 l-178 2 0 140 0
140 245 5 245 5 3 114 c2 75 -1 118 -9 127 -9 12 -76 14 -375 14 -349 0 -364
-1 -374 -19z"/>
<path d="M6477 1243 c-4 -3 -7 -22 -7 -41 0 -27 -3 -33 -16 -28 -47 18 -61 17
-67 -3 -6 -23 0 -31 22 -31 9 0 23 -5 31 -10 12 -7 11 -13 -10 -35 -19 -20
-22 -30 -14 -42 18 -29 31 -25 55 13 20 34 24 36 33 20 30 -51 43 -61 60 -47
21 18 20 34 -4 56 -28 25 -25 33 16 41 25 5 34 11 30 21 -3 8 -6 19 -6 25 0
10 -27 6 -64 -8 -13 -5 -16 1 -16 35 0 33 -4 41 -18 41 -10 0 -22 -3 -25 -7z"/>
<path d="M4268 1223 c-2 -5 -2 -92 0 -195 l3 -188 25 0 c24 0 24 0 24 108 0
116 6 132 50 132 44 0 50 -16 50 -132 l0 -108 25 0 25 0 0 120 c0 147 -8 160
-95 160 l-55 0 0 55 c0 52 -1 55 -24 55 -14 0 -26 -3 -28 -7z"/>
<path d="M6090 1035 l0 -195 25 0 25 0 0 110 c0 107 1 111 24 121 34 16 72 4
80 -23 3 -13 6 -65 6 -115 l0 -93 26 0 26 0 -3 121 c-4 113 -6 122 -28 140
-16 13 -39 19 -77 19 l-54 0 0 55 c0 52 -1 55 -25 55 l-25 0 0 -195z"/>
<path d="M6771 1221 c-8 -5 -17 -29 -20 -53 -5 -35 -10 -44 -28 -46 -15 -2
-23 -10 -23 -22 0 -12 8 -20 23 -22 21 -3 22 -7 22 -98 0 -91 -1 -95 -22 -98
-15 -2 -23 -10 -23 -23 0 -17 8 -19 85 -19 77 0 85 2 85 19 0 15 -8 21 -32 23
l-33 3 0 95 0 95 43 3 c33 3 42 7 42 22 0 15 -9 19 -42 22 -40 3 -43 5 -43 33
0 29 2 30 48 33 39 3 47 6 47 23 0 17 -7 19 -57 19 -32 0 -64 -4 -72 -9z"/>
<path d="M7610 1035 l0 -195 25 0 25 0 0 110 c0 107 1 111 24 121 14 7 36 9
49 5 30 -7 37 -36 37 -152 0 -84 0 -84 26 -84 l26 0 -3 121 c-4 113 -6 122
-28 140 -16 13 -39 19 -77 19 l-54 0 0 55 c0 52 -1 55 -25 55 l-25 0 0 -195z"/>
<path d="M7060 1155 c0 -31 -3 -35 -25 -35 -18 0 -25 -5 -25 -20 0 -15 7 -20
25 -20 25 0 25 0 25 -98 0 -126 9 -142 86 -142 47 0 54 2 54 20 0 15 -7 20
-28 20 -54 0 -63 16 -60 110 l3 85 43 3 c33 3 42 7 42 22 0 15 -9 19 -42 22
-40 3 -43 5 -46 36 -3 26 -7 32 -28 32 -21 0 -24 -5 -24 -35z"/>
<path d="M3930 1116 c0 -2 11 -63 25 -136 14 -73 25 -134 25 -136 0 -2 13 -4
30 -4 26 0 30 4 36 38 4 20 10 43 14 51 8 16 12 6 25 -56 6 -28 11 -33 35 -33
32 0 29 -7 55 150 9 52 18 103 21 113 4 13 -1 17 -20 17 -28 0 -32 -9 -42 -95
-6 -60 -23 -110 -24 -73 0 9 -5 40 -11 68 -9 44 -14 51 -32 48 -16 -2 -23 -13
-29 -43 -17 -84 -19 -91 -27 -75 -5 8 -11 40 -15 70 -11 90 -16 100 -42 100
-13 0 -24 -2 -24 -4z"/>
<path d="M4594 1099 c-16 -18 -19 -37 -19 -121 0 -93 2 -101 24 -119 20 -16
37 -19 90 -17 51 2 66 6 66 18 0 11 -16 17 -59 21 -60 7 -78 20 -74 54 3 18
12 20 76 23 l72 3 0 58 c0 80 -20 101 -99 101 -46 0 -62 -4 -77 -21z m116 -33
c6 -8 10 -25 8 -38 -3 -20 -9 -23 -48 -23 -38 0 -45 3 -48 21 -6 43 60 73 88
40z"/>
<path d="M4880 1101 c0 -10 9 -21 20 -24 18 -5 20 -14 20 -97 0 -83 -2 -92
-20 -97 -11 -3 -20 -14 -20 -24 0 -17 8 -19 75 -19 67 0 75 2 75 19 0 14 -8
21 -27 23 -28 3 -28 4 -31 81 -3 91 4 105 56 109 30 2 38 8 40 26 3 21 1 22
-92 22 -87 0 -96 -2 -96 -19z"/>
<path d="M5201 1094 c-18 -23 -21 -41 -21 -116 0 -81 2 -91 25 -113 21 -22 33
-25 90 -25 58 0 65 2 65 20 0 17 -7 20 -39 20 -64 0 -93 15 -89 48 3 26 5 27
76 30 l72 3 0 53 c0 80 -24 106 -100 106 -51 0 -61 -3 -79 -26z m113 -27 c11
-8 17 -23 14 -38 -3 -21 -8 -24 -48 -24 -40 0 -45 3 -48 24 -4 26 19 51 48 51
9 0 24 -6 34 -13z"/>
<path d="M5820 1100 c-24 -24 -27 -87 -6 -115 8 -11 31 -21 57 -24 40 -6 44
-9 47 -37 3 -35 -12 -44 -80 -44 -31 0 -38 -4 -38 -20 0 -18 7 -20 64 -20 86
0 111 20 110 85 -1 56 -18 75 -72 82 -79 11 -62 73 20 73 31 0 38 4 38 20 0
18 -7 20 -60 20 -47 0 -64 -4 -80 -20z"/>
<path d="M7920 1100 c0 -17 7 -20 48 -20 55 0 86 -18 81 -46 -3 -14 -14 -20
-44 -22 -85 -5 -105 -24 -105 -97 0 -62 25 -75 135 -74 85 1 95 3 95 19 0 10
-7 20 -15 24 -12 4 -15 25 -15 96 0 83 -2 93 -25 115 -21 22 -33 25 -90 25
-58 0 -65 -2 -65 -20z m130 -170 c0 -34 -3 -40 -26 -46 -36 -9 -74 10 -74 39
0 33 18 47 62 47 38 0 38 0 38 -40z"/>
<path d="M8220 929 l0 -190 23 3 c19 3 22 10 25 51 l3 47 53 0 c78 0 97 19
103 102 7 82 -2 133 -28 159 -16 16 -33 19 -99 19 l-80 0 0 -191z m131 141
c16 -9 19 -22 19 -90 0 -88 -12 -105 -68 -98 -27 3 -27 4 -30 86 -2 53 1 89 9
98 14 17 43 18 70 4z"/>
<path d="M8520 930 l0 -190 24 0 c23 0 25 5 28 48 l3 47 57 5 c85 8 93 19 93
141 0 129 -9 139 -126 139 l-79 0 0 -190z m142 133 c14 -12 18 -31 18 -82 0
-36 -4 -72 -9 -80 -5 -8 -27 -15 -53 -15 l-43 -1 -3 85 c-2 71 0 87 14 97 24
18 54 16 76 -4z"/>
<path d="M8850 1100 c-17 -17 -20 -33 -20 -119 0 -96 1 -100 26 -120 21 -16
41 -21 90 -21 57 0 64 2 64 20 0 17 -7 20 -48 20 -58 0 -85 17 -80 51 3 23 7
24 77 27 l73 3 -4 59 c-6 82 -24 100 -100 100 -45 0 -63 -5 -78 -20z m115 -36
c9 -9 15 -26 13 -38 -3 -18 -10 -21 -48 -21 -39 0 -45 3 -48 23 -7 47 48 70
83 36z"/>
<path d="M9130 980 l0 -140 25 0 25 0 0 108 c0 116 6 132 50 132 44 0 50 -16
50 -132 l0 -108 25 0 25 0 0 120 c0 154 -4 160 -120 160 l-80 0 0 -140z"/>
<path d="M9472 1104 c-18 -12 -22 -25 -22 -63 0 -57 14 -73 73 -80 38 -5 42
-9 45 -37 3 -35 -12 -44 -80 -44 -31 0 -38 -4 -38 -20 0 -18 7 -20 63 -20 86
0 107 16 107 80 0 65 -15 80 -95 92 -11 2 -21 11 -23 21 -6 30 17 47 64 47 37
0 44 3 44 20 0 18 -7 20 -58 20 -36 0 -66 -6 -80 -16z"/>
</g>
</svg>
